<svg width="1932" height="1734" viewBox="0 0 1932 1734" fill="none" xmlns="http://www.w3.org/2000/svg">
<g clip-path="url(#clip0_102_6)" filter="url(#filter0_dddd_102_6)">
<rect width="1924" height="1726" transform="translate(4)" fill="white"/>
<path d="M2120.4 -172.6H-188.4V1898.6H2120.4V-172.6Z" fill="white"/>
<path d="M2120.4 -172.6H-188.4V1898.6H2120.4V-172.6Z" fill="white"/>
<path d="M2120.4 -172.6H-188.4V1898.6H2120.4V-172.6Z" fill="#051D40"/>
<path d="M1015.28 270.011C1008.11 269.526 1000.95 268.986 993.718 268.699C993.898 279.324 994.139 289.932 994.259 300.54C1000.81 300.827 1007.27 301.331 1013.72 301.78C1014.12 291.173 1014.66 280.601 1015.28 270.011Z" fill="#01FAFF"/>
<path d="M1527.17 548.257C1426.78 404.333 1259.67 301.475 1064.95 274.991C1064.34 285.653 1063.84 296.315 1063.46 306.976C1246.42 332.92 1403.21 430.134 1497.53 565.732C1507.35 559.835 1517.25 554.028 1527.17 548.257Z" fill="#01FAFF"/>
<path d="M1627.09 838.764C1623.15 748.221 1596.43 662.874 1552.06 587.092C1542.08 592.899 1532.14 598.742 1522.26 604.675C1563.06 675.316 1587.49 754.676 1591.4 838.764H1627.09Z" fill="#01FAFF"/>
<path d="M1591.64 883.532C1585.89 1021.79 1524.32 1147.43 1426.5 1242.79C1435.44 1249.75 1444.63 1256.46 1453.83 1263.18C1556.77 1162.28 1621.36 1029.52 1627.11 883.532H1591.64Z" fill="#01FAFF"/>
<path d="M526.206 1306.74C533.561 1298.42 541.016 1290.17 548.312 1281.81C425.757 1183.69 346.231 1043.17 338.936 886.103C327.092 885.834 315.247 885.582 303.402 885.42C310.597 1052.81 395.354 1202.59 526.206 1306.74Z" fill="#01FAFF"/>
<path d="M564.485 1335.06C579.937 1345.63 595.911 1355.61 612.365 1364.94C618.718 1355.99 625.071 1347.04 631.364 1338.06C615.972 1329.33 601.021 1319.99 586.551 1310.12C579.236 1318.48 571.801 1326.72 564.485 1335.06Z" fill="#01FAFF"/>
<path d="M674.654 1360.39C668.341 1369.38 661.948 1378.35 655.615 1387.33C740.13 1427.62 835.409 1452.07 936.579 1455.97C936.839 1445.36 937.36 1434.76 938.262 1424.17C843.425 1420.55 754.079 1397.83 674.654 1360.39Z" fill="#01FAFF"/>
<path d="M486.002 579.936L451.17 558.289C449.186 560.914 447.181 563.557 445.217 566.218L480.23 587.991C482.154 585.294 484.058 582.597 486.002 579.936Z" fill="#01FAFF"/>
<path d="M567.251 492.216L539.152 465.427C536.567 467.638 534.022 469.85 531.497 472.079L559.555 498.814C562.04 496.567 564.706 494.427 567.251 492.216Z" fill="#01FAFF"/>
<path d="M668.281 422.151L647.057 390.831C644.051 392.503 641.064 394.229 638.058 395.937L659.302 427.329C662.309 425.621 665.235 423.823 668.281 422.151Z" fill="#01FAFF"/>
<path d="M908.36 350.234L902.528 309.619C899.021 310.033 895.494 310.446 891.986 310.914L897.798 351.385C901.326 351.007 904.833 350.558 908.36 350.234Z" fill="#01FAFF"/>
<path d="M783.461 374.326L769.351 338.296C765.984 339.357 762.657 340.436 759.331 341.55L773.38 377.401C776.727 376.34 780.094 375.351 783.461 374.326Z" fill="#01FAFF"/>
<path d="M1294.88 1283.14L1319.35 1310.18C1322.02 1308.33 1324.67 1306.44 1327.29 1304.53L1303.16 1277.85C1300.44 1279.65 1297.65 1281.39 1294.88 1283.14Z" fill="#01FAFF"/>
<path d="M1192.11 1334.94L1212.23 1370.14C1215.28 1368.81 1218.3 1367.48 1221.31 1366.11L1201.35 1331.18C1198.26 1332.44 1195.22 1333.73 1192.11 1334.94Z" fill="#01FAFF"/>
<path d="M1080.16 1366.6L1093.04 1409.33C1096.33 1408.58 1099.6 1407.8 1102.84 1407.01L1090.02 1364.56C1086.71 1365.21 1083.44 1365.99 1080.16 1366.6Z" fill="#01FAFF"/>
<path d="M396.957 792.737L348.656 784.791C348.055 787.937 347.434 791.083 346.853 794.23L395.594 802.23C396.015 799.066 396.476 795.902 396.957 792.737Z" fill="#01FAFF"/>
<path d="M428.523 680.835L387.037 665.247C385.674 668.196 384.391 671.162 383.108 674.147L424.815 689.807C426.038 686.804 427.28 683.82 428.523 680.835Z" fill="#01FAFF"/>
<path d="M1351.26 1203.97L1349.8 1205.31L1427.34 1274.85L1425.72 1276.31C1305.14 1384.07 1145.03 1444.54 974.878 1446.55L972.533 1446.59L972.814 1348.29L966.06 1348.33C822.562 1348.33 687.32 1298.46 585.208 1207.89C483.637 1117.8 425.155 991.299 424.574 860.519L422.249 860.465H314.766V858.379C317.171 538.35 609.338 277.976 966.06 277.976H968.385V321.342L970.449 321.36C980.43 321.414 990.391 321.701 1000.29 322.187C1002.4 322.295 1004.52 322.456 1006.62 322.636L1014.62 323.193C1019.71 323.517 1024.8 323.841 1029.87 324.326C1032.44 324.56 1034.98 324.884 1037.55 325.189L1046.57 326.214C1050.74 326.681 1054.94 327.131 1059.11 327.706C1061.96 328.102 1064.85 328.587 1067.65 329.055L1076.71 330.511C1080.5 331.086 1084.29 331.662 1088.03 332.363C1091 332.902 1093.95 333.532 1096.89 334.161L1105.53 335.941C1109.22 336.678 1112.91 337.415 1116.57 338.242C1119.56 338.925 1122.53 339.698 1125.51 340.471L1134.17 342.665C1137.66 343.51 1141.16 344.391 1144.65 345.344C1147.66 346.171 1150.58 347.088 1153.57 347.987L1162.21 350.594C1165.59 351.583 1168.94 352.589 1172.29 353.668C1175.32 354.657 1178.32 355.718 1181.31 356.797L1189.62 359.709C1192.91 360.842 1196.16 361.957 1199.37 363.161C1202.47 364.312 1205.5 365.552 1208.52 366.793L1216.3 369.939C1219.55 371.216 1222.75 372.492 1225.94 373.841C1228.95 375.135 1231.95 376.52 1234.9 377.886L1242.8 381.5C1245.86 382.866 1248.91 384.233 1251.91 385.689C1254.9 387.145 1257.85 388.674 1260.79 390.202L1268.11 393.942C1271.17 395.506 1274.24 397.07 1277.27 398.688C1280.15 400.252 1282.94 401.87 1285.78 403.524L1293.14 407.732C1296.07 409.386 1299.01 411.076 1301.92 412.82C1304.86 414.582 1307.75 416.451 1310.62 418.303L1317.53 422.69C1320.32 424.452 1323.14 426.214 1325.87 428.048C1328.75 429.99 1331.56 431.985 1334.39 433.981L1340.82 438.512C1343.58 440.454 1346.33 442.395 1349.06 444.409C1351.82 446.423 1354.49 448.526 1357.15 450.612L1363.27 455.358C1366.03 457.498 1368.8 459.619 1371.5 461.831C1374.23 464.06 1376.91 466.38 1379.6 468.699L1384.91 473.266C1387.14 475.153 1389.36 477.059 1391.52 479.019L1393.17 480.457L1349.8 519.364L1351.26 520.677C1452.23 612.281 1507.83 733.604 1507.83 862.335C1507.83 991.066 1452.23 1112.39 1351.26 1203.97ZM1511.33 838.225C1511.25 836.714 1511.13 835.222 1510.99 833.712L1510.57 828.498C1510.23 823.751 1509.91 819.023 1509.41 814.33C1509.19 812.371 1508.91 810.429 1508.63 808.487L1507.71 801.565C1507.25 797.915 1506.78 794.284 1506.18 790.652C1505.84 788.566 1505.44 786.499 1505.04 784.449L1503.68 777.239C1503.06 773.895 1502.46 770.569 1501.73 767.243C1501.27 765.067 1500.69 762.892 1500.13 760.717L1498.39 753.525C1497.63 750.396 1496.86 747.268 1496.02 744.158C1495.42 741.964 1494.74 739.789 1494.08 737.613L1492.11 731.123C1491.13 727.887 1490.19 724.632 1489.11 721.414C1488.35 719.149 1487.52 716.919 1486.68 714.708L1484.22 707.858C1483.18 704.891 1482.11 701.943 1480.97 699.012C1480.05 696.693 1479.05 694.373 1478.04 692.09L1475.48 686.049C1474.22 683.011 1472.97 680.008 1471.61 677.023C1470.59 674.776 1469.49 672.529 1468.38 670.299L1465.36 664.061C1463.98 661.184 1462.59 658.307 1461.09 655.466C1459.97 653.255 1458.72 651.062 1457.48 648.868L1454.34 643.151C1452.71 640.202 1451.13 637.272 1449.44 634.377C1448.1 632.13 1446.7 629.9 1445.3 627.671L1441.93 622.277C1440.19 619.436 1438.42 616.578 1436.62 613.791C1435.2 611.651 1433.71 609.566 1432.25 607.462L1428.2 601.655C1426.36 598.994 1424.53 596.333 1422.63 593.726C1421.11 591.64 1419.5 589.591 1417.9 587.541L1413.73 582.165C1411.71 579.504 1409.68 576.844 1407.54 574.219C1405.87 572.169 1404.11 570.155 1402.39 568.142L1398.04 563.09C1395.85 560.483 1393.65 557.876 1391.34 555.323C1389.54 553.327 1387.68 551.367 1385.79 549.407L1381.02 544.337C1378.72 541.892 1376.43 539.429 1374.05 537.056C1372 535.006 1369.9 532.992 1367.8 530.979L1362.54 525.909C1360.8 524.201 1359.08 522.493 1357.27 520.838L1355.69 519.382L1399.1 480.421L1397.66 479.109C1390.56 472.69 1383.33 466.451 1375.97 460.393C1374.71 459.35 1367.19 453.471 1367.19 453.471C1362.64 449.839 1358.1 446.225 1353.45 442.755C1351.7 441.46 1349.94 440.202 1348.17 438.979L1341.42 434.179C1337.69 431.482 1333.96 428.785 1330.16 426.214C1328.07 424.83 1325.99 423.499 1323.86 422.169L1316.89 417.674C1313.3 415.355 1309.71 413.017 1306.09 410.788C1303.8 409.404 1301.5 408.091 1299.17 406.779L1291.4 402.284C1288.05 400.324 1284.68 398.346 1281.26 396.477C1278.79 395.128 1276.26 393.834 1273.74 392.539L1265.72 388.404C1262.44 386.678 1259.17 384.952 1255.82 383.334C1253.16 382.021 1250.43 380.781 1247.71 379.558L1239.47 375.765C1236.24 374.254 1232.99 372.744 1229.71 371.324C1226.92 370.101 1224.06 368.95 1221.21 367.818L1213.01 364.492C1209.69 363.125 1206.4 361.759 1203.03 360.482C1200.09 359.368 1197.12 358.325 1194.11 357.282L1185.86 354.351C1182.51 353.165 1179.14 351.942 1175.76 350.827C1172.59 349.785 1169.38 348.814 1166.2 347.861L1158.12 345.416C1154.75 344.373 1151.41 343.33 1147.98 342.377C1144.75 341.46 1141.44 340.633 1138.18 339.806L1129.64 337.613C1126.35 336.768 1123.07 335.905 1119.74 335.132C1116.49 334.359 1113.21 333.693 1109.9 333.01L1101.2 331.194C1097.83 330.475 1094.45 329.756 1091.02 329.109C1087.61 328.479 1084.17 327.922 1080.72 327.383L1072.68 326.052C1069.11 325.459 1065.53 324.848 1061.94 324.344C1058.53 323.859 1055.09 323.463 1051.66 323.068L1043.36 322.079C1039.73 321.647 1036.13 321.198 1032.48 320.838C1029.03 320.515 1025.56 320.263 1022.1 320.011L1013.72 319.382C1010.07 319.094 1006.4 318.807 1002.72 318.609C999.169 318.429 995.641 318.321 992.074 318.213L983.115 317.908C980.35 317.8 977.584 317.692 974.798 317.656L972.533 317.62V274.326L966.06 274.236C604.588 274.236 310.497 538.045 310.497 862.335V864.492L420.225 864.187L420.265 866.254C421.388 996.603 478.927 1118.88 582.302 1210.56C685.176 1301.82 821.459 1352.07 966.06 1352.07H968.164L968.385 1450.34H970.469C1145.05 1449.3 1308.89 1387.45 1431.75 1276.16L1433.21 1274.85L1355.69 1205.29L1357.27 1203.83C1359.04 1202.19 1360.74 1200.52 1362.44 1198.85L1367.94 1193.55C1370 1191.59 1372.06 1189.63 1374.05 1187.61C1376.53 1185.11 1378.94 1182.56 1381.3 1180.01L1385.65 1175.42C1387.58 1173.39 1389.5 1171.4 1391.34 1169.35C1393.55 1166.88 1395.67 1164.38 1397.8 1161.89L1402.23 1156.71C1404.01 1154.64 1405.79 1152.55 1407.54 1150.43C1409.62 1147.86 1411.61 1145.27 1413.63 1142.67L1417.74 1137.34C1419.38 1135.22 1421.03 1133.1 1422.63 1130.94C1424.53 1128.32 1426.4 1125.64 1428.24 1122.98L1432.27 1117.17C1433.73 1115.07 1435.2 1112.98 1436.62 1110.86C1438.32 1108.27 1439.95 1105.65 1441.55 1103.02L1445.28 1097C1446.7 1094.77 1448.1 1092.54 1449.44 1090.27C1451.03 1087.54 1452.57 1084.76 1454.07 1081.99L1457.58 1075.64C1458.8 1073.5 1459.97 1071.36 1461.09 1069.19C1462.59 1066.34 1463.98 1063.47 1465.36 1060.57L1468.34 1054.44C1469.47 1052.18 1470.59 1049.93 1471.61 1047.63C1472.89 1044.88 1474.06 1042.07 1475.22 1039.29L1478.14 1032.42C1479.11 1030.17 1480.07 1027.92 1480.97 1025.64C1482.13 1022.67 1483.2 1019.69 1484.26 1016.69L1486.64 1010.11C1487.48 1007.82 1488.35 1005.56 1489.11 1003.26C1490.07 1000.32 1490.97 997.376 1491.85 994.392L1494.06 987.128C1494.72 984.935 1495.42 982.723 1496.02 980.494C1496.86 977.437 1497.63 974.363 1498.35 971.271L1500.13 964.025C1500.69 961.831 1501.23 959.638 1501.73 957.409C1502.46 954.136 1503.04 950.864 1503.64 947.592L1504.94 940.706C1505.4 938.477 1505.82 936.247 1506.18 934C1506.76 930.458 1507.21 926.898 1507.69 923.32L1508.63 916.2C1508.91 914.259 1509.19 912.299 1509.41 910.339C1509.91 905.665 1510.23 900.954 1510.57 896.243C1510.57 896.243 1511.25 887.883 1511.33 886.445C1511.75 878.444 1511.97 870.407 1511.97 862.335C1511.97 854.262 1511.75 846.225 1511.33 838.225Z" fill="#01FAFF"/>
<path d="M785.224 1280.21L796.688 1269.9C733.116 1248.85 673.452 1215.57 622.466 1169.83C569.856 1122.66 531.958 1067.24 508.629 1008.18L497.185 1018.47C431.509 859.278 469.708 673.14 612.024 545.452C754.34 417.782 961.851 383.532 1139.26 442.449L1127.82 452.733C1193.65 473.661 1255.42 507.66 1307.99 554.837C1359 600.576 1396.09 654.082 1419.58 711.112L1431.03 700.828C1499.85 861.184 1462.37 1050.09 1318.45 1179.22C1174.53 1308.33 963.956 1341.91 785.224 1280.21ZM1325.39 539.231C1126.79 361.058 803.663 361.076 605.07 539.231C406.477 717.387 406.477 1007.26 605.07 1185.44C803.683 1363.59 1126.83 1363.59 1325.39 1185.44C1524 1007.28 1524 717.387 1325.39 539.231Z" fill="#01FAFF"/>
<path d="M522.798 862.335C522.798 643.474 721.291 465.427 965.238 465.427C1209.19 465.427 1407.7 643.474 1407.7 862.335C1407.7 1081.2 1209.19 1259.24 965.238 1259.24C721.291 1259.24 522.798 1081.2 522.798 862.335ZM1285.42 1149.57C1333.04 1106.85 1367.72 1056.87 1389.64 1003.6L1397.86 1010.97C1417.66 964.78 1428.58 914.69 1428.58 862.335C1428.58 633.136 1220.73 446.656 965.238 446.656C906.877 446.656 851.061 456.491 799.534 474.237L807.771 481.608C748.408 501.277 692.672 532.381 645.073 575.1C595.931 619.167 560.517 670.929 538.712 726.107L530.434 718.663C511.976 763.467 501.895 811.849 501.895 862.335C501.895 1091.53 709.767 1278.01 965.238 1278.01C1021.54 1278.01 1075.45 1268.93 1125.41 1252.39L1117.09 1244.95C1178.6 1225.41 1236.3 1193.64 1285.42 1149.57Z" fill="#01FAFF"/>
<path d="M883.168 1050H821.98C819.335 1050 816.85 1048.89 815.266 1046.98C813.683 1045.08 813.182 1042.59 813.904 1040.29L926.939 683.154C927.961 679.882 931.268 677.635 935.015 677.635H996.203C998.828 677.635 1001.31 678.749 1002.92 680.655C1004.5 682.579 1005 685.042 1004.28 687.344L906.536 996.19C905.254 1000.23 900.604 1002.57 896.135 1001.4C891.685 1000.25 889.1 996.028 890.383 992.001L985.059 692.863H941.369L833.144 1034.77H883.168C887.817 1034.77 891.565 1038.19 891.565 1042.4C891.565 1046.6 887.817 1050 883.168 1050ZM1115.11 1046.98C1116.69 1045.08 1117.19 1042.59 1116.47 1040.29L1020.85 738.189C1019.57 734.143 1014.92 731.806 1010.45 732.975C1006 734.125 1003.42 738.35 1004.7 742.396L1097.25 1034.77H1053.56L991.773 839.591C990.491 835.546 985.841 833.226 981.372 834.377C976.902 835.528 974.337 839.753 975.62 843.798L1039.13 1044.48C1040.17 1047.75 1043.46 1050 1047.21 1050H1108.4C1111.02 1050 1113.51 1048.89 1115.11 1046.98Z" fill="#01FAFF"/>
<path d="M622.288 701.841C617.858 701.104 613.81 701.23 610.243 701.967C606.735 702.83 603.509 704.52 600.843 706.947C598.178 709.374 595.813 712.52 593.828 716.548L579.138 746.429L579.218 746.465C578.196 749.018 578.677 751.769 580.32 753.962C580.922 754.61 581.623 755.293 582.284 755.76L647.44 781.668C648.562 781.902 649.785 781.974 650.847 781.884C654.114 781.543 656.86 779.673 658.162 777.012L672.572 747.724C674.556 743.714 675.598 739.939 675.759 736.613C675.939 733.215 675.158 729.942 673.414 726.994C671.73 724.171 669.105 721.402 665.518 718.957C661.93 716.512 657.361 714.193 652.029 712.071L637.038 706.138C631.707 704.034 626.717 702.56 622.288 701.841ZM645.997 766.044L596.654 746.519C596.274 746.357 596.113 746.195 596.153 746.106L607.838 722.391C608.8 720.431 609.922 718.831 611.185 717.681C612.427 716.548 613.69 715.829 615.313 715.541C616.977 715.181 618.901 715.217 621.065 715.667C623.43 716.206 626.236 716.997 629.382 718.256L647.219 725.322C650.366 726.562 652.911 727.875 654.855 729.043C656.779 730.23 658.102 731.471 658.924 732.819C659.685 734.042 660.046 735.408 659.946 737.008C659.846 738.59 659.184 740.388 658.222 742.348L646.518 766.152C646.518 766.152 646.378 766.206 645.997 766.044Z" fill="#01FAFF"/>
<path d="M669.355 629.124C668.834 628.962 668.213 628.746 667.752 628.638C662.561 626.606 656.368 627.775 652.64 631.677C650.937 633.456 649.855 635.578 649.614 637.861C649.434 638.473 649.414 639.066 649.394 639.533C649.394 641.385 650.275 643.92 652.179 647.103L688.114 709.131C688.635 709.904 689.276 710.515 689.878 710.749C690.439 711.037 691.481 711.234 692.563 710.084L700.039 702.281C700.921 701.346 700.961 700.159 700.279 699.009L692.824 686.243L707.695 670.691C708.436 669.9 708.717 668.893 708.336 667.994C708.116 667.078 707.314 666.34 706.312 665.945L696.832 663.068C695.529 662.691 694.147 662.996 693.265 663.913L684.847 672.723L667.892 643.902C667.792 643.705 667.792 643.579 667.792 643.579L668.052 643.291C668.052 643.291 668.052 643.291 668.273 643.345L734.15 663.428C735.593 663.913 736.895 663.697 737.857 662.709L745.113 655.103C746.215 653.953 745.694 653.072 745.433 652.622C745.093 652.119 744.311 651.633 743.329 651.382L669.355 629.124Z" fill="#01FAFF"/>
<path d="M773.453 544.238L715.172 577.446C714.371 577.895 712.767 579.136 714.511 581.599L718.88 587.748C720.724 590.355 722.648 589.6 723.449 589.15L746.077 576.241L781.971 626.961C783.715 629.406 785.639 628.651 786.34 628.255L794.437 623.634C795.239 623.185 796.742 621.98 795.018 619.535L759.104 568.816L781.731 555.925C782.532 555.475 784.116 554.235 782.272 551.628L777.923 545.461C776.179 543.016 774.255 543.789 773.453 544.238Z" fill="#01FAFF"/>
<path d="M869.578 521.524C869.237 521.11 868.877 520.625 868.556 520.319C865.51 516.022 859.657 513.883 854.126 515.249C851.621 515.878 849.396 517.101 847.773 518.863C847.252 519.276 846.851 519.762 846.55 520.139C845.388 521.686 844.546 524.221 844.145 527.816L835.347 597.288C835.287 598.169 835.447 599.014 835.808 599.499C836.068 600.021 836.83 600.704 838.433 600.308L849.496 597.558C850.799 597.234 851.581 596.263 851.721 594.969L853.485 580.657L875.51 575.192C876.613 574.922 877.474 574.221 877.735 573.286C878.116 572.405 877.915 571.398 877.334 570.571L871.241 563.433C870.4 562.48 869.077 562.031 867.774 562.354L855.308 565.447L859.176 533.03C859.216 532.833 859.297 532.707 859.297 532.707L859.697 532.617C859.697 532.617 859.697 532.617 859.838 532.761L901.985 582.419C902.867 583.552 904.09 584.037 905.513 583.678L916.255 581.017C917.878 580.621 917.999 579.614 918.059 579.111C918.099 578.518 917.738 577.745 917.097 577.025L869.578 521.524Z" fill="#01FAFF"/>
<path d="M993.197 511.765C992.997 511.298 992.816 510.722 992.636 510.345C991.193 505.418 986.363 501.769 980.631 501.553C978.006 501.463 975.48 502.02 973.336 503.243C972.695 503.513 972.153 503.854 971.733 504.124C970.109 505.275 968.446 507.468 966.822 510.776L934.696 574.476C934.355 575.303 934.195 576.148 934.395 576.706C934.455 577.281 934.936 578.126 936.62 578.198L948.083 578.63C949.426 578.683 950.508 577.982 951.09 576.778L957.663 563.635L980.491 564.498C981.633 564.534 982.695 564.102 983.257 563.293C983.918 562.556 984.058 561.531 983.798 560.596L980.431 552.128C979.97 550.996 978.867 550.204 977.505 550.151L964.578 549.665L979.348 519.874C979.449 519.676 979.569 519.586 979.569 519.586L979.99 519.604C979.99 519.604 979.99 519.604 980.07 519.802L1003.2 578.647C1003.66 579.978 1004.68 580.769 1006.12 580.823L1017.29 581.254C1018.95 581.308 1019.41 580.391 1019.65 579.942C1019.87 579.385 1019.81 578.54 1019.43 577.677L993.197 511.765Z" fill="#01FAFF"/>
<path d="M1097.54 588.507L1065.37 578.906C1063.29 578.294 1061.66 577.611 1060.46 576.748C1059.4 576.047 1058.64 575.13 1058.3 573.943C1057.88 572.739 1057.78 571.229 1058.08 569.538C1058.34 567.633 1059.06 565.385 1060.04 562.724L1076.27 518.945C1077.34 516.104 1075.45 515.241 1074.65 515.008L1065.55 512.293C1064.65 512.023 1062.59 511.7 1061.52 514.54L1045.85 556.809C1044.01 561.789 1042.92 566.194 1042.54 569.934C1042.1 573.746 1042.4 577.09 1043.57 579.894C1044.69 582.807 1046.63 585.252 1049.44 587.176C1052.04 589.046 1055.61 590.7 1059.96 591.994L1092.63 601.739C1093.53 602.009 1095.53 602.207 1096.56 599.456L1099.16 592.444C1100.18 589.693 1098.44 588.776 1097.54 588.507Z" fill="#01FAFF"/>
<path d="M1200.67 568.509L1160.3 544.867C1159.6 544.453 1157.7 543.662 1155.87 546.179L1151.36 552.364C1149.6 554.791 1151.16 556.05 1151.87 556.463L1189.94 578.775C1192.13 580.052 1193.29 581.526 1193.31 583.216C1193.43 584.942 1192.49 587.082 1190.61 589.671C1188.72 592.26 1186.92 593.878 1185.09 594.489C1183.37 595.154 1181.41 594.777 1179.22 593.5L1141.14 571.188C1140.44 570.775 1138.52 569.984 1136.75 572.411L1112.78 605.331C1111.02 607.758 1112.54 609.088 1113.25 609.502L1121.28 614.212C1121.98 614.608 1123.95 615.327 1125.71 612.9L1143.17 588.916L1173.11 606.355C1179.04 609.825 1184.51 610.688 1189.54 608.944C1194.55 607.182 1199.2 603.191 1203.71 597.006L1203.35 597.474C1207.92 591.217 1210.13 585.787 1209.85 581.041C1209.69 576.132 1206.6 571.979 1200.67 568.509Z" fill="#01FAFF"/>
<path d="M1292.17 646.197L1285.82 639.761C1285.28 639.186 1283.63 638.107 1281.23 640.031L1257.86 658.567L1231.67 631.994L1255.03 613.457C1257.46 611.534 1256.46 609.951 1255.84 609.322L1249.54 602.94C1248.92 602.31 1247.24 601.16 1244.81 603.083L1185.79 649.883C1183.39 651.807 1184.45 653.443 1185.07 654.09L1191.36 660.455C1191.98 661.084 1193.61 662.181 1196.03 660.257L1220.1 641.163L1246.28 667.737L1222.21 686.83C1219.78 688.754 1220.78 690.336 1221.34 690.894L1227.7 697.348C1228.32 697.977 1230.02 699.128 1232.45 697.204L1291.45 650.405C1293.87 648.481 1292.79 646.827 1292.17 646.197Z" fill="#01FAFF"/>
<path d="M1332.81 727.124C1333.19 726.747 1333.67 726.351 1333.97 726.028C1338.18 722.612 1339.58 717.074 1337.16 712.417C1336.05 710.296 1334.35 708.534 1332.15 707.383C1331.6 706.988 1331 706.718 1330.54 706.502C1328.66 705.747 1325.71 705.423 1321.7 705.639L1243.86 709.253C1242.88 709.361 1242 709.631 1241.52 710.026C1241 710.35 1240.35 711.141 1241.06 712.489L1245.89 721.838C1246.47 722.935 1247.65 723.475 1249.11 723.385L1265.15 722.594L1274.77 741.184C1275.25 742.119 1276.15 742.766 1277.23 742.838C1278.25 743.036 1279.34 742.676 1280.14 742.029L1286.99 735.467C1287.89 734.568 1288.17 733.327 1287.61 732.212L1282.16 721.695L1318.44 719.789C1318.68 719.807 1318.82 719.843 1318.82 719.843L1318.98 720.184C1318.98 720.184 1318.98 720.184 1318.84 720.346L1271.16 765.78C1270.06 766.768 1269.74 767.919 1270.36 769.106L1275.05 778.203C1275.75 779.552 1276.87 779.498 1277.43 779.48C1278.09 779.408 1278.9 778.976 1279.58 778.275L1332.81 727.124Z" fill="#01FAFF"/>
<path d="M720.841 1086.54L698.634 1066.76C697.512 1065.77 696.55 1064.12 700.158 1060.86L705.589 1055.95C706.912 1054.77 708.174 1054.03 709.277 1053.69C710.018 1053.56 710.96 1053.49 712.223 1054.61L742.365 1081.45C742.947 1081.97 744.65 1083.08 746.935 1081.03L752.807 1075.71C755.092 1073.66 753.829 1072.14 753.228 1071.61L721.322 1043.21C717.253 1039.57 712.964 1038.14 708.335 1038.87C703.765 1039.56 699.276 1041.88 695.007 1045.72L689.415 1050.78C684.345 1055.36 681.278 1060 680.537 1063.97C679.835 1068.74 682.802 1072.17 685.908 1074.94L708.114 1094.72C709.216 1095.71 710.259 1097.43 706.651 1100.69L700.338 1106.4C699.015 1107.59 697.773 1108.33 696.59 1108.6C695.849 1108.72 694.887 1108.79 693.624 1107.68L662.018 1079.52C661.357 1078.93 659.653 1077.8 657.369 1079.87L651.496 1085.17C649.212 1087.24 650.474 1088.75 651.136 1089.34L684.525 1119.08C688.594 1122.71 693.023 1124.15 697.672 1123.41C702.182 1122.67 706.591 1120.41 710.86 1116.54L717.313 1110.7C722.103 1106.39 724.889 1102.14 725.611 1098.04C726.252 1093.87 724.689 1089.97 720.841 1086.54Z" fill="#01FAFF"/>
<path d="M780.413 1160.55L749.228 1143.17C747.364 1142.12 746.041 1141.04 745.019 1140.04C744.137 1139 743.716 1137.99 743.556 1136.8C743.456 1135.54 743.756 1134.05 744.538 1132.38C744.718 1131.95 745.099 1131.39 745.3 1130.94C745.3 1130.94 749.348 1125.26 749.428 1125.31L789.051 1147.39C789.752 1147.79 791.736 1148.45 793.46 1145.99L797.809 1139.71C799.512 1137.25 797.909 1136.03 797.187 1135.63L751.412 1110.23C748.747 1108.95 745.7 1108.9 743.075 1110.19C742.193 1110.59 741.412 1111.02 740.73 1111.65L733.615 1121.56L733.335 1121.95C730.85 1125.74 729.086 1129.16 727.883 1132.15C726.48 1135.76 725.999 1139.12 726.3 1142.05C726.641 1145.11 727.944 1147.82 730.188 1150.27C732.273 1152.77 735.259 1154.98 739.167 1157.15L770.612 1174.7C771.414 1175.13 773.358 1175.89 775.061 1173.43L781.114 1164.69C782.818 1162.22 781.214 1161 780.413 1160.55ZM816.147 1109.17L765.201 1080.76C764.479 1080.37 762.576 1079.75 760.812 1082.29L756.523 1088.49C754.819 1090.95 756.343 1092.14 757.044 1092.54L807.93 1121.02C808.651 1121.41 810.635 1122.08 812.339 1119.61L816.688 1113.34C818.392 1110.88 816.848 1109.56 816.147 1109.17Z" fill="#01FAFF"/>
<path d="M891.613 1134.39L849.044 1121.66C844.695 1120.35 840.747 1119.76 837.3 1119.81C833.853 1119.97 830.546 1120.86 827.84 1122.51C824.994 1124.24 822.469 1126.63 820.244 1129.92C818.08 1133.1 816.096 1137.25 814.272 1142.13L807.738 1159.71C805.894 1164.69 804.712 1169.06 804.271 1172.89C803.89 1176.61 804.271 1179.99 805.393 1182.88C806.556 1185.69 808.5 1188.15 811.205 1190.04C813.911 1191.95 817.478 1193.6 821.828 1194.89L855.678 1205.02C859.326 1206.11 862.692 1205.65 865.639 1203.67C868.444 1201.74 870.99 1197.86 873.194 1191.91L882.033 1168.12C883.295 1164.74 881.311 1163.56 880.029 1163.18L844.996 1152.7C844.194 1152.46 842.09 1152.23 841.027 1155.07L838.522 1161.81C837.44 1164.74 839.324 1165.61 840.106 1165.84L864.757 1173.21L860.227 1185.67C859.205 1188.42 858.283 1189.43 857.682 1189.84C856.92 1190.4 856.039 1190.44 854.956 1190.11L827.239 1181.82C825.154 1181.19 823.451 1180.49 822.329 1179.67C821.166 1178.91 820.505 1178.03 820.084 1176.82C819.723 1175.73 819.623 1174.22 819.944 1172.44C820.204 1170.55 820.845 1168.27 821.828 1165.61L829.483 1145C830.486 1142.34 831.508 1140.18 832.55 1138.53C833.452 1137.02 834.534 1135.87 835.596 1135.1C836.718 1134.45 837.841 1134.09 839.284 1134.03C840.707 1134.05 842.591 1134.32 844.655 1134.95L886.722 1147.52C887.504 1147.75 889.588 1148.09 890.651 1145.25L893.216 1138.31C894.238 1135.56 892.394 1134.63 891.613 1134.39Z" fill="#01FAFF"/>
<path d="M972.518 1141.91L962.938 1141.25C962.016 1141.19 960.012 1141.34 959.771 1144.23L955.883 1190.24C955.643 1193.03 955.222 1195.45 954.761 1197.2C954.3 1198.94 953.558 1200.31 952.757 1201.28C951.835 1202.16 950.853 1202.75 949.45 1203.13C948.067 1203.4 946.163 1203.56 943.979 1203.42L921.512 1201.89C919.327 1201.73 917.483 1201.33 916.161 1200.87C914.858 1200.31 913.976 1199.59 913.215 1198.6C912.573 1197.52 912.072 1196.08 911.812 1194.27C911.651 1192.49 911.631 1190.04 911.872 1187.24L915.76 1141.23C916 1138.35 914.056 1137.94 913.114 1137.87L903.655 1137.22C902.713 1137.17 900.608 1137.29 900.368 1140.19L896.6 1184.7C896.159 1189.93 896.199 1194.43 896.841 1198.13C897.462 1201.93 898.745 1205.13 900.628 1207.59C902.412 1210.16 905.078 1212.03 908.204 1213.36C911.351 1214.6 915.259 1215.34 919.828 1215.66L943.237 1217.24C947.807 1217.57 951.815 1217.37 955.122 1216.56C958.549 1215.66 961.395 1214.17 963.68 1211.89C965.944 1209.69 967.668 1206.71 968.91 1203.04C970.153 1199.46 970.955 1195.02 971.396 1189.79L975.163 1145.27C975.404 1142.38 973.46 1141.97 972.518 1141.91Z" fill="#01FAFF"/>
<path d="M1056.33 1153.54C1056.35 1153.63 1056.37 1153.72 1056.37 1153.81C1056.39 1153.9 1056.41 1154.01 1056.43 1154.1L1056.33 1153.54ZM1067.87 1203.22L1044.56 1178.33C1049.49 1177 1053.04 1174.47 1055.01 1170.93C1057.15 1166.7 1057.65 1161.02 1056.37 1153.81C1054.88 1146.64 1052.3 1141.44 1048.69 1138.1C1044.86 1134.61 1039.35 1133.46 1032.36 1134.55L984.959 1141.87C984.038 1142.01 982.033 1142.61 982.595 1145.56L983.997 1152.84C984.539 1155.7 986.663 1155.66 987.585 1155.52L1032.3 1148.61C1034.98 1148.2 1036.85 1148.58 1038.13 1149.8C1039.53 1151 1040.47 1153.14 1041.06 1156.18C1041.64 1159.22 1041.56 1161.52 1040.7 1163.07C1039.93 1164.61 1038.31 1165.53 1035.62 1165.94L990.912 1172.85C989.99 1172.99 987.986 1173.59 988.527 1176.44L995.962 1215.19C996.524 1218.05 998.648 1218.1 999.57 1217.96L1008.93 1216.5C1009.85 1216.36 1011.74 1215.69 1011.17 1212.83L1005.76 1184.61L1027.45 1181.26L1051.76 1208C1052.26 1208.48 1052.66 1208.9 1053.12 1209.11C1053.72 1209.4 1054.46 1209.47 1055.39 1209.33L1066.71 1207.58C1067.93 1207.39 1068.71 1206.51 1068.71 1205.37C1068.63 1204.44 1068.39 1203.72 1067.87 1203.22Z" fill="#01FAFF"/>
<path d="M1076.61 1123.09L1067.57 1125.96C1066.79 1126.21 1064.95 1127.19 1066.03 1129.92L1092.34 1196.51C1093.43 1199.25 1095.53 1198.98 1096.33 1198.72L1105.37 1195.85C1106.15 1195.6 1107.98 1194.63 1106.9 1191.89L1080.58 1125.3C1079.52 1122.57 1077.39 1122.83 1076.61 1123.09Z" fill="#01FAFF"/>
<path d="M1153.47 1088.86L1093.28 1119.24C1092.46 1119.65 1090.8 1120.82 1092.38 1123.34L1096.37 1129.7C1098.07 1132.4 1100.04 1131.72 1100.86 1131.3L1124.23 1119.51L1157.06 1171.86C1158.66 1174.4 1160.62 1173.73 1161.35 1173.36L1169.72 1169.13C1170.52 1168.72 1172.11 1167.6 1170.52 1165.09L1137.68 1112.71L1161.04 1100.92C1161.87 1100.51 1163.53 1099.35 1161.83 1096.66L1157.84 1090.29C1156.25 1087.78 1154.29 1088.44 1153.47 1088.86Z" fill="#01FAFF"/>
<path d="M1217.18 1036.91L1208.84 1044.12C1208.16 1044.7 1207.48 1045.69 1207.96 1047.21L1220.43 1088.53L1175.11 1075.69C1173.35 1075.14 1172.23 1075.71 1171.55 1076.29L1162.99 1083.69C1162.31 1084.27 1162.15 1085.06 1162.65 1085.8C1163.01 1086.41 1163.65 1086.88 1164.45 1087.09L1225.7 1103.71L1241.55 1118.48C1243.8 1120.57 1245.5 1119.47 1246.1 1118.95L1253.04 1112.98C1253.64 1112.46 1254.92 1110.97 1252.68 1108.88L1236.84 1094.1L1220.91 1038.37C1220.71 1037.63 1220.21 1037.04 1219.49 1036.62C1218.68 1036.28 1217.78 1036.39 1217.18 1036.91Z" fill="#01FAFF"/>
</g>
<defs>
<filter id="filter0_dddd_102_6" x="0" y="0" width="1932" height="1734" filterUnits="userSpaceOnUse" color-interpolation-filters="sRGB">
<feFlood flood-opacity="0" result="BackgroundImageFix"/>
<feColorMatrix in="SourceAlpha" type="matrix" values="0 0 0 0 0 0 0 0 0 0 0 0 0 0 0 0 0 0 127 0" result="hardAlpha"/>
<feOffset dy="4"/>
<feGaussianBlur stdDeviation="2"/>
<feComposite in2="hardAlpha" operator="out"/>
<feColorMatrix type="matrix" values="0 0 0 0 0 0 0 0 0 0 0 0 0 0 0 0 0 0 0.25 0"/>
<feBlend mode="normal" in2="BackgroundImageFix" result="effect1_dropShadow_102_6"/>
<feColorMatrix in="SourceAlpha" type="matrix" values="0 0 0 0 0 0 0 0 0 0 0 0 0 0 0 0 0 0 127 0" result="hardAlpha"/>
<feOffset dy="4"/>
<feGaussianBlur stdDeviation="2"/>
<feComposite in2="hardAlpha" operator="out"/>
<feColorMatrix type="matrix" values="0 0 0 0 0 0 0 0 0 0 0 0 0 0 0 0 0 0 0.25 0"/>
<feBlend mode="normal" in2="effect1_dropShadow_102_6" result="effect2_dropShadow_102_6"/>
<feColorMatrix in="SourceAlpha" type="matrix" values="0 0 0 0 0 0 0 0 0 0 0 0 0 0 0 0 0 0 127 0" result="hardAlpha"/>
<feOffset dy="4"/>
<feGaussianBlur stdDeviation="2"/>
<feComposite in2="hardAlpha" operator="out"/>
<feColorMatrix type="matrix" values="0 0 0 0 0 0 0 0 0 0 0 0 0 0 0 0 0 0 0.25 0"/>
<feBlend mode="normal" in2="effect2_dropShadow_102_6" result="effect3_dropShadow_102_6"/>
<feColorMatrix in="SourceAlpha" type="matrix" values="0 0 0 0 0 0 0 0 0 0 0 0 0 0 0 0 0 0 127 0" result="hardAlpha"/>
<feOffset dy="4"/>
<feGaussianBlur stdDeviation="2"/>
<feComposite in2="hardAlpha" operator="out"/>
<feColorMatrix type="matrix" values="0 0 0 0 0 0 0 0 0 0 0 0 0 0 0 0 0 0 0.25 0"/>
<feBlend mode="normal" in2="effect3_dropShadow_102_6" result="effect4_dropShadow_102_6"/>
<feBlend mode="normal" in="SourceGraphic" in2="effect4_dropShadow_102_6" result="shape"/>
</filter>
<clipPath id="clip0_102_6">
<rect width="1924" height="1726" fill="white" transform="translate(4)"/>
</clipPath>
</defs>
</svg>
