<svg xmlns="http://www.w3.org/2000/svg" xmlns:xlink="http://www.w3.org/1999/xlink" width="500" zoomAndPan="magnify" viewBox="0 0 375 374.999991" height="500" preserveAspectRatio="xMidYMid meet" version="1.0"><defs><g/><clipPath id="cef55c9288"><path d="M 192 58.355469 L 198 58.355469 L 198 66 L 192 66 Z M 192 58.355469 " clip-rule="nonzero"/></clipPath><clipPath id="6a00974578"><path d="M 295 127 L 316.355469 127 L 316.355469 183 L 295 183 Z M 295 127 " clip-rule="nonzero"/></clipPath><clipPath id="448ca2490b"><path d="M 277 191 L 316.355469 191 L 316.355469 275 L 277 275 Z M 277 191 " clip-rule="nonzero"/></clipPath><clipPath id="26ef5d8b96"><path d="M 58.355469 192 L 107 192 L 107 284 L 58.355469 284 Z M 58.355469 192 " clip-rule="nonzero"/></clipPath><clipPath id="928fa562e0"><path d="M 127 295.308594 L 182.195312 295.308594 L 182.195312 316.332031 L 127 316.332031 Z M 127 295.308594 " clip-rule="nonzero"/></clipPath><clipPath id="c11c711ac5"><path d="M 157.710938 147.171875 L 216.960938 147.171875 L 216.960938 228.171875 L 157.710938 228.171875 Z M 157.710938 147.171875 " clip-rule="nonzero"/></clipPath></defs><g clip-path="url(#cef55c9288)"><path fill="#01faff" d="M 197.105469 58.664062 C 195.707031 58.558594 194.3125 58.441406 192.902344 58.378906 C 192.9375 60.6875 192.984375 62.992188 193.007812 65.296875 C 194.285156 65.359375 195.542969 65.46875 196.800781 65.566406 C 196.878906 63.261719 196.984375 60.964844 197.105469 58.664062 " fill-opacity="1" fill-rule="nonzero"/></g><path fill="#01faff" d="M 296.875 119.117188 C 277.308594 87.847656 244.738281 65.5 206.785156 59.746094 C 206.667969 62.0625 206.570312 64.378906 206.496094 66.695312 C 242.15625 72.332031 272.714844 93.453125 291.097656 122.914062 C 293.011719 121.632812 294.941406 120.371094 296.875 119.117188 " fill-opacity="1" fill-rule="nonzero"/><g clip-path="url(#6a00974578)"><path fill="#01faff" d="M 316.351562 182.234375 C 315.582031 162.5625 310.375 144.019531 301.726562 127.554688 C 299.78125 128.816406 297.84375 130.085938 295.917969 131.375 C 303.871094 146.722656 308.632812 163.964844 309.394531 182.234375 L 316.351562 182.234375 " fill-opacity="1" fill-rule="nonzero"/></g><g clip-path="url(#448ca2490b)"><path fill="#01faff" d="M 309.441406 191.960938 C 308.320312 222 296.320312 249.296875 277.253906 270.015625 C 278.996094 271.527344 280.789062 272.984375 282.582031 274.445312 C 302.644531 252.523438 315.234375 223.679688 316.355469 191.960938 L 309.441406 191.960938 " fill-opacity="1" fill-rule="nonzero"/></g><g clip-path="url(#26ef5d8b96)"><path fill="#01faff" d="M 101.78125 283.910156 C 103.214844 282.101562 104.667969 280.308594 106.089844 278.492188 C 82.203125 257.175781 66.703125 226.644531 65.28125 192.519531 C 62.972656 192.460938 60.664062 192.40625 58.355469 192.371094 C 59.757812 228.738281 76.277344 261.28125 101.78125 283.910156 " fill-opacity="1" fill-rule="nonzero"/></g><path fill="#01faff" d="M 109.242188 290.0625 C 112.253906 292.359375 115.367188 294.527344 118.574219 296.554688 C 119.8125 294.609375 121.050781 292.664062 122.277344 290.714844 C 119.277344 288.816406 116.363281 286.789062 113.542969 284.644531 C 112.117188 286.460938 110.667969 288.25 109.242188 290.0625 " fill-opacity="1" fill-rule="nonzero"/><g clip-path="url(#928fa562e0)"><path fill="#01faff" d="M 130.714844 295.566406 C 129.484375 297.519531 128.238281 299.46875 127.003906 301.417969 C 143.476562 310.171875 162.046875 315.484375 181.765625 316.332031 C 181.816406 314.027344 181.917969 311.722656 182.09375 309.421875 C 163.609375 308.636719 146.195312 303.699219 130.714844 295.566406 " fill-opacity="1" fill-rule="nonzero"/></g><path fill="#01faff" d="M 93.945312 126 L 87.15625 121.296875 C 86.769531 121.867188 86.378906 122.441406 85.996094 123.019531 L 92.820312 127.75 C 93.195312 127.164062 93.566406 126.578125 93.945312 126 " fill-opacity="1" fill-rule="nonzero"/><path fill="#01faff" d="M 109.78125 106.941406 L 104.304688 101.121094 C 103.800781 101.601562 103.304688 102.082031 102.8125 102.566406 L 108.28125 108.375 C 108.765625 107.886719 109.285156 107.421875 109.78125 106.941406 " fill-opacity="1" fill-rule="nonzero"/><path fill="#01faff" d="M 129.472656 91.71875 L 125.335938 84.914062 C 124.75 85.277344 124.167969 85.652344 123.582031 86.023438 L 127.722656 92.84375 C 128.308594 92.472656 128.878906 92.082031 129.472656 91.71875 " fill-opacity="1" fill-rule="nonzero"/><path fill="#01faff" d="M 176.265625 76.09375 L 175.128906 67.269531 C 174.445312 67.359375 173.757812 67.449219 173.074219 67.550781 L 174.207031 76.34375 C 174.894531 76.261719 175.578125 76.164062 176.265625 76.09375 " fill-opacity="1" fill-rule="nonzero"/><path fill="#01faff" d="M 151.921875 81.328125 L 149.171875 73.5 C 148.515625 73.730469 147.867188 73.964844 147.21875 74.207031 L 149.957031 81.996094 C 150.609375 81.765625 151.265625 81.550781 151.921875 81.328125 " fill-opacity="1" fill-rule="nonzero"/><path fill="#01faff" d="M 251.601562 278.78125 L 256.371094 284.65625 C 256.890625 284.253906 257.40625 283.84375 257.917969 283.429688 L 253.214844 277.632812 C 252.683594 278.023438 252.140625 278.402344 251.601562 278.78125 " fill-opacity="1" fill-rule="nonzero"/><path fill="#01faff" d="M 231.570312 290.035156 L 235.492188 297.683594 C 236.085938 297.394531 236.675781 297.105469 237.261719 296.808594 L 233.371094 289.21875 C 232.769531 289.492188 232.175781 289.773438 231.570312 290.035156 " fill-opacity="1" fill-rule="nonzero"/><path fill="#01faff" d="M 209.75 296.914062 L 212.261719 306.199219 C 212.902344 306.035156 213.539062 305.867188 214.171875 305.695312 L 211.671875 296.472656 C 211.027344 296.613281 210.390625 296.78125 209.75 296.914062 " fill-opacity="1" fill-rule="nonzero"/><path fill="#01faff" d="M 76.589844 172.234375 L 67.175781 170.507812 C 67.058594 171.191406 66.9375 171.875 66.824219 172.558594 L 76.324219 174.296875 C 76.40625 173.609375 76.496094 172.921875 76.589844 172.234375 " fill-opacity="1" fill-rule="nonzero"/><path fill="#01faff" d="M 82.742188 147.921875 L 74.65625 144.535156 C 74.390625 145.175781 74.140625 145.820312 73.890625 146.46875 L 82.019531 149.871094 C 82.257812 149.21875 82.5 148.570312 82.742188 147.921875 " fill-opacity="1" fill-rule="nonzero"/><path fill="#01faff" d="M 262.589844 261.582031 L 262.304688 261.871094 L 277.417969 276.980469 L 277.101562 277.296875 C 253.601562 300.710938 222.394531 313.847656 189.230469 314.285156 L 188.773438 314.292969 L 188.828125 292.9375 L 187.511719 292.945312 C 159.542969 292.945312 133.183594 282.109375 113.28125 262.433594 C 93.484375 242.859375 82.085938 215.375 81.972656 186.960938 L 81.519531 186.949219 L 60.570312 186.949219 L 60.570312 186.496094 C 61.039062 116.964844 117.984375 60.394531 187.511719 60.394531 L 187.964844 60.394531 L 187.964844 69.816406 L 188.367188 69.820312 C 190.3125 69.832031 192.253906 69.894531 194.183594 70 C 194.59375 70.023438 195.007812 70.058594 195.417969 70.097656 L 196.976562 70.21875 C 197.96875 70.289062 198.960938 70.359375 199.949219 70.464844 C 200.449219 70.515625 200.945312 70.585938 201.445312 70.652344 L 203.203125 70.875 C 204.015625 70.976562 204.835938 71.074219 205.648438 71.199219 C 206.203125 71.285156 206.765625 71.390625 207.3125 71.492188 L 209.078125 71.808594 C 209.816406 71.933594 210.554688 72.058594 211.285156 72.210938 C 211.863281 72.328125 212.4375 72.464844 213.011719 72.601562 L 214.695312 72.988281 C 215.414062 73.148438 216.132812 73.308594 216.847656 73.488281 C 217.429688 73.636719 218.007812 73.804688 218.589844 73.972656 L 220.277344 74.449219 C 220.957031 74.632812 221.640625 74.824219 222.320312 75.03125 C 222.90625 75.210938 223.476562 75.410156 224.058594 75.605469 L 225.742188 76.171875 C 226.402344 76.386719 227.054688 76.605469 227.707031 76.839844 C 228.296875 77.054688 228.882812 77.285156 229.464844 77.519531 L 231.085938 78.152344 C 231.726562 78.398438 232.359375 78.640625 232.984375 78.902344 C 233.589844 79.152344 234.179688 79.421875 234.769531 79.691406 L 236.285156 80.375 C 236.917969 80.652344 237.542969 80.929688 238.164062 81.222656 C 238.75 81.503906 239.335938 81.804688 239.910156 82.101562 L 241.449219 82.886719 C 242.046875 83.183594 242.640625 83.480469 243.226562 83.796875 C 243.808594 84.113281 244.382812 84.445312 244.957031 84.777344 L 246.382812 85.589844 C 246.980469 85.929688 247.578125 86.269531 248.167969 86.621094 C 248.730469 86.960938 249.273438 87.3125 249.828125 87.671875 L 251.261719 88.585938 C 251.832031 88.945312 252.40625 89.3125 252.972656 89.691406 C 253.546875 90.074219 254.109375 90.480469 254.667969 90.882812 L 256.015625 91.835938 C 256.558594 92.21875 257.109375 92.601562 257.640625 93 C 258.203125 93.421875 258.75 93.855469 259.300781 94.289062 L 260.554688 95.273438 C 261.09375 95.695312 261.628906 96.117188 262.160156 96.554688 C 262.699219 96.992188 263.21875 97.449219 263.738281 97.902344 L 264.929688 98.933594 C 265.46875 99.398438 266.007812 99.859375 266.535156 100.339844 C 267.066406 100.824219 267.589844 101.328125 268.113281 101.832031 L 269.148438 102.824219 C 269.582031 103.234375 270.015625 103.648438 270.4375 104.074219 L 270.757812 104.386719 L 262.304688 112.839844 L 262.589844 113.125 C 282.269531 133.027344 293.105469 159.386719 293.105469 187.355469 C 293.105469 215.324219 282.269531 241.683594 262.589844 261.582031 Z M 293.789062 182.117188 C 293.773438 181.789062 293.75 181.464844 293.722656 181.136719 L 293.640625 180.003906 C 293.574219 178.972656 293.511719 177.945312 293.414062 176.925781 C 293.371094 176.5 293.316406 176.078125 293.261719 175.65625 L 293.082031 174.152344 C 292.992188 173.359375 292.902344 172.570312 292.785156 171.78125 C 292.71875 171.328125 292.640625 170.878906 292.5625 170.433594 L 292.296875 168.867188 C 292.175781 168.140625 292.058594 167.417969 291.917969 166.695312 C 291.828125 166.222656 291.714844 165.75 291.605469 165.277344 L 291.265625 163.714844 C 291.117188 163.035156 290.96875 162.355469 290.804688 161.679688 C 290.6875 161.203125 290.554688 160.730469 290.425781 160.257812 L 290.042969 158.847656 C 289.851562 158.144531 289.667969 157.4375 289.457031 156.738281 C 289.308594 156.246094 289.148438 155.761719 288.984375 155.28125 L 288.503906 153.792969 C 288.300781 153.148438 288.09375 152.507812 287.871094 151.871094 C 287.691406 151.367188 287.496094 150.863281 287.300781 150.367188 L 286.800781 149.054688 C 286.554688 148.394531 286.3125 147.742188 286.046875 147.09375 C 285.847656 146.605469 285.632812 146.117188 285.417969 145.632812 L 284.828125 144.277344 C 284.558594 143.652344 284.289062 143.027344 283.996094 142.410156 C 283.777344 141.929688 283.535156 141.453125 283.292969 140.976562 L 282.679688 139.734375 C 282.363281 139.09375 282.054688 138.457031 281.726562 137.828125 C 281.464844 137.339844 281.191406 136.855469 280.917969 136.371094 L 280.261719 135.199219 C 279.921875 134.582031 279.578125 133.960938 279.226562 133.355469 C 278.949219 132.890625 278.660156 132.4375 278.375 131.980469 L 277.585938 130.71875 C 277.226562 130.140625 276.871094 129.5625 276.5 128.996094 C 276.203125 128.542969 275.890625 128.097656 275.578125 127.652344 L 274.765625 126.484375 C 274.371094 125.90625 273.976562 125.328125 273.558594 124.757812 C 273.234375 124.3125 272.890625 123.875 272.554688 123.4375 L 271.707031 122.339844 C 271.28125 121.773438 270.851562 121.207031 270.402344 120.652344 C 270.050781 120.21875 269.6875 119.792969 269.320312 119.367188 L 268.390625 118.265625 C 267.941406 117.734375 267.496094 117.199219 267.03125 116.683594 C 266.632812 116.238281 266.222656 115.800781 265.8125 115.363281 L 264.789062 114.261719 C 264.449219 113.890625 264.113281 113.519531 263.761719 113.160156 L 263.453125 112.84375 L 271.914062 104.378906 L 271.632812 104.09375 C 270.25 102.699219 268.839844 101.34375 267.40625 100.027344 C 267.160156 99.800781 265.695312 98.523438 265.695312 98.523438 C 264.808594 97.734375 263.921875 96.949219 263.015625 96.195312 C 262.675781 95.914062 262.332031 95.640625 261.988281 95.375 L 260.671875 94.332031 C 259.945312 93.746094 259.21875 93.160156 258.476562 92.601562 C 258.070312 92.300781 257.664062 92.011719 257.25 91.722656 L 255.890625 90.746094 C 255.191406 90.242188 254.492188 89.734375 253.785156 89.25 C 253.339844 88.949219 252.890625 88.664062 252.4375 88.378906 L 250.921875 87.402344 C 250.269531 86.976562 249.613281 86.546875 248.945312 86.140625 C 248.464844 85.847656 247.972656 85.566406 247.480469 85.285156 L 245.917969 84.386719 C 245.277344 84.011719 244.640625 83.636719 243.988281 83.285156 C 243.46875 83 242.9375 82.730469 242.40625 82.464844 L 240.800781 81.640625 C 240.171875 81.3125 239.539062 80.984375 238.898438 80.675781 C 238.355469 80.410156 237.796875 80.160156 237.242188 79.914062 L 235.644531 79.191406 C 234.996094 78.894531 234.355469 78.597656 233.699219 78.320312 C 233.125 78.078125 232.546875 77.851562 231.960938 77.625 L 230.351562 76.988281 C 229.699219 76.730469 229.042969 76.464844 228.382812 76.222656 C 227.765625 75.996094 227.140625 75.785156 226.519531 75.578125 L 224.945312 75.046875 C 224.289062 74.820312 223.636719 74.59375 222.96875 74.386719 C 222.339844 74.1875 221.695312 74.007812 221.058594 73.828125 L 219.394531 73.351562 C 218.753906 73.167969 218.113281 72.980469 217.464844 72.8125 C 216.832031 72.644531 216.191406 72.5 215.546875 72.351562 L 213.851562 71.957031 C 213.195312 71.800781 212.535156 71.644531 211.867188 71.503906 C 211.203125 71.367188 210.53125 71.246094 209.859375 71.128906 L 208.292969 70.839844 C 207.597656 70.710938 206.898438 70.578125 206.199219 70.46875 C 205.535156 70.363281 204.863281 70.277344 204.195312 70.191406 L 202.578125 69.976562 C 201.871094 69.882812 201.167969 69.785156 200.457031 69.707031 C 199.785156 69.636719 199.109375 69.582031 198.433594 69.527344 L 196.800781 69.390625 C 196.089844 69.328125 195.375 69.265625 194.65625 69.222656 C 193.964844 69.183594 193.277344 69.160156 192.582031 69.136719 L 190.835938 69.070312 C 190.296875 69.046875 189.757812 69.023438 189.214844 69.015625 L 188.773438 69.007812 L 188.773438 59.601562 L 187.511719 59.582031 C 117.058594 59.582031 59.738281 116.898438 59.738281 187.355469 L 59.738281 187.824219 L 81.125 187.757812 L 81.132812 188.207031 C 81.351562 216.527344 92.566406 243.09375 112.714844 263.011719 C 132.765625 282.839844 159.328125 293.757812 187.511719 293.757812 L 187.921875 293.757812 L 187.964844 315.109375 L 188.371094 315.109375 C 222.398438 314.882812 254.332031 301.445312 278.277344 277.265625 L 278.5625 276.980469 L 263.453125 261.867188 L 263.761719 261.550781 C 264.105469 261.195312 264.4375 260.832031 264.769531 260.46875 L 265.839844 259.316406 C 266.242188 258.890625 266.644531 258.464844 267.03125 258.027344 C 267.515625 257.484375 267.984375 256.929688 268.445312 256.375 L 269.292969 255.378906 C 269.667969 254.9375 270.042969 254.503906 270.402344 254.058594 C 270.832031 253.523438 271.246094 252.980469 271.660156 252.4375 L 272.523438 251.3125 C 272.871094 250.863281 273.21875 250.410156 273.558594 249.949219 C 273.964844 249.390625 274.351562 248.828125 274.746094 248.261719 L 275.546875 247.105469 C 275.867188 246.644531 276.1875 246.183594 276.5 245.714844 C 276.871094 245.144531 277.234375 244.5625 277.59375 243.984375 L 278.378906 242.722656 C 278.664062 242.265625 278.949219 241.8125 279.226562 241.351562 C 279.558594 240.789062 279.875 240.21875 280.1875 239.648438 L 280.914062 238.339844 C 281.191406 237.855469 281.464844 237.371094 281.726562 236.878906 C 282.035156 236.285156 282.335938 235.679688 282.628906 235.078125 L 283.3125 233.699219 C 283.550781 233.234375 283.777344 232.769531 283.996094 232.296875 C 284.289062 231.679688 284.558594 231.054688 284.828125 230.425781 L 285.410156 229.09375 C 285.628906 228.601562 285.847656 228.113281 286.046875 227.613281 C 286.296875 227.015625 286.523438 226.40625 286.75 225.800781 L 287.320312 224.308594 C 287.507812 223.820312 287.695312 223.332031 287.871094 222.835938 C 288.097656 222.191406 288.304688 221.542969 288.511719 220.890625 L 288.976562 219.460938 C 289.140625 218.964844 289.308594 218.472656 289.457031 217.972656 C 289.644531 217.335938 289.820312 216.695312 289.992188 216.046875 L 290.421875 214.46875 C 290.550781 213.992188 290.6875 213.511719 290.804688 213.027344 C 290.96875 212.363281 291.117188 211.695312 291.257812 211.023438 L 291.605469 209.449219 C 291.714844 208.972656 291.820312 208.496094 291.917969 208.011719 C 292.058594 207.300781 292.171875 206.589844 292.289062 205.878906 L 292.542969 204.382812 C 292.632812 203.898438 292.714844 203.414062 292.785156 202.925781 C 292.898438 202.15625 292.984375 201.382812 293.078125 200.605469 L 293.261719 199.058594 C 293.316406 198.636719 293.371094 198.210938 293.414062 197.785156 C 293.511719 196.769531 293.574219 195.746094 293.640625 194.722656 C 293.640625 194.722656 293.773438 192.90625 293.789062 192.59375 C 293.871094 190.855469 293.914062 189.109375 293.914062 187.355469 C 293.914062 185.601562 293.871094 183.855469 293.789062 182.117188 " fill-opacity="1" fill-rule="nonzero"/><path fill="#01faff" d="M 152.265625 278.144531 L 154.5 275.90625 C 142.109375 271.332031 130.480469 264.101562 120.542969 254.164062 C 110.289062 243.914062 102.902344 231.875 98.355469 219.042969 L 96.125 221.277344 C 83.324219 186.691406 90.769531 146.25 118.507812 118.507812 C 146.246094 90.769531 186.691406 83.328125 221.269531 96.128906 L 219.039062 98.363281 C 231.871094 102.910156 243.910156 110.296875 254.15625 120.546875 C 264.097656 130.484375 271.328125 142.109375 275.90625 154.5 L 278.136719 152.265625 C 291.550781 187.105469 284.246094 228.148438 256.195312 256.203125 C 228.144531 284.253906 187.101562 291.550781 152.265625 278.144531 Z M 257.546875 117.15625 C 218.839844 78.445312 155.859375 78.449219 117.152344 117.15625 C 78.445312 155.863281 78.445312 218.84375 117.152344 257.554688 C 155.863281 296.261719 218.847656 296.261719 257.546875 257.554688 C 296.257812 218.847656 296.257812 155.863281 257.546875 117.15625 " fill-opacity="1" fill-rule="nonzero"/><path fill="#01faff" d="M 101.117188 187.355469 C 101.117188 139.804688 139.804688 101.121094 187.351562 101.121094 C 234.898438 101.121094 273.589844 139.804688 273.589844 187.355469 C 273.589844 234.90625 234.898438 273.589844 187.351562 273.589844 C 139.804688 273.589844 101.117188 234.90625 101.117188 187.355469 Z M 249.757812 249.761719 C 259.039062 240.480469 265.796875 229.621094 270.070312 218.046875 L 271.671875 219.648438 C 275.53125 209.613281 277.660156 198.730469 277.660156 187.355469 C 277.660156 137.558594 237.148438 97.042969 187.351562 97.042969 C 175.976562 97.042969 165.097656 99.179688 155.054688 103.035156 L 156.660156 104.636719 C 145.089844 108.910156 134.226562 115.667969 124.949219 124.949219 C 115.371094 134.523438 108.46875 145.769531 104.21875 157.757812 L 102.605469 156.140625 C 99.007812 165.875 97.042969 176.386719 97.042969 187.355469 C 97.042969 237.152344 137.558594 277.667969 187.351562 277.667969 C 198.324219 277.667969 208.832031 275.695312 218.570312 272.101562 L 216.949219 270.484375 C 228.9375 266.238281 240.183594 259.335938 249.757812 249.761719 " fill-opacity="1" fill-rule="nonzero"/><g clip-path="url(#c11c711ac5)"><path fill="#01faff" d="M 171.355469 228.128906 L 159.429688 228.128906 C 158.914062 228.128906 158.429688 227.886719 158.121094 227.472656 C 157.8125 227.058594 157.714844 226.519531 157.855469 226.019531 L 179.886719 148.425781 C 180.085938 147.714844 180.730469 147.226562 181.460938 147.226562 L 193.386719 147.226562 C 193.898438 147.226562 194.382812 147.46875 194.695312 147.882812 C 195.003906 148.300781 195.101562 148.835938 194.960938 149.335938 L 175.910156 216.4375 C 175.660156 217.316406 174.753906 217.824219 173.882812 217.570312 C 173.015625 217.320312 172.511719 216.402344 172.761719 215.527344 L 191.214844 150.535156 L 182.699219 150.535156 L 161.605469 224.820312 L 171.355469 224.820312 C 172.261719 224.820312 172.992188 225.5625 172.992188 226.476562 C 172.992188 227.390625 172.261719 228.128906 171.355469 228.128906 Z M 216.5625 227.472656 C 216.871094 227.058594 216.96875 226.519531 216.828125 226.019531 L 198.191406 160.382812 C 197.941406 159.503906 197.035156 158.996094 196.164062 159.25 C 195.296875 159.5 194.792969 160.417969 195.042969 161.296875 L 213.082031 224.820312 L 204.566406 224.820312 L 192.523438 182.414062 C 192.273438 181.535156 191.367188 181.03125 190.496094 181.28125 C 189.625 181.53125 189.125 182.449219 189.375 183.328125 L 201.753906 226.929688 C 201.957031 227.640625 202.597656 228.128906 203.328125 228.128906 L 215.253906 228.128906 C 215.765625 228.128906 216.25 227.886719 216.5625 227.472656 Z M 216.5625 227.472656 " fill-opacity="1" fill-rule="nonzero"/></g><g fill="#01faff" fill-opacity="1"><g transform="translate(126.109822, 171.915391)"><g><path d="M -5.601562 -19.429688 C -6.464844 -19.589844 -7.253906 -19.5625 -7.949219 -19.402344 C -8.632812 -19.214844 -9.261719 -18.847656 -9.78125 -18.320312 C -10.300781 -17.792969 -10.761719 -17.109375 -11.148438 -16.234375 L -14.011719 -9.742188 L -13.996094 -9.734375 C -14.195312 -9.179688 -14.101562 -8.582031 -13.78125 -8.105469 C -13.664062 -7.964844 -13.527344 -7.816406 -13.398438 -7.714844 L -0.699219 -2.085938 C -0.480469 -2.035156 -0.242188 -2.019531 -0.0351562 -2.039062 C 0.601562 -2.113281 1.136719 -2.519531 1.390625 -3.097656 L 4.199219 -9.460938 C 4.585938 -10.332031 4.789062 -11.152344 4.820312 -11.875 C 4.855469 -12.613281 4.703125 -13.324219 4.363281 -13.964844 C 4.035156 -14.578125 3.523438 -15.179688 2.824219 -15.710938 C 2.125 -16.242188 1.234375 -16.746094 0.195312 -17.207031 L -2.726562 -18.496094 C -3.765625 -18.953125 -4.738281 -19.273438 -5.601562 -19.429688 Z M -0.980469 -5.480469 L -10.597656 -9.722656 C -10.671875 -9.757812 -10.703125 -9.792969 -10.695312 -9.8125 L -8.417969 -14.964844 C -8.230469 -15.390625 -8.011719 -15.738281 -7.765625 -15.988281 C -7.523438 -16.234375 -7.277344 -16.390625 -6.960938 -16.453125 C -6.636719 -16.53125 -6.261719 -16.523438 -5.839844 -16.425781 C -5.378906 -16.308594 -4.832031 -16.136719 -4.21875 -15.863281 L -0.742188 -14.328125 C -0.128906 -14.058594 0.367188 -13.773438 0.746094 -13.519531 C 1.121094 -13.261719 1.378906 -12.992188 1.539062 -12.699219 C 1.6875 -12.433594 1.757812 -12.136719 1.738281 -11.789062 C 1.71875 -11.445312 1.589844 -11.054688 1.402344 -10.628906 L -0.878906 -5.457031 C -0.878906 -5.457031 -0.90625 -5.445312 -0.980469 -5.480469 Z M -0.980469 -5.480469 "/></g></g></g><g fill="#01faff" fill-opacity="1"><g transform="translate(132.81479, 155.870347)"><g><path d="M -3.132812 -19.183594 C -3.234375 -19.21875 -3.355469 -19.265625 -3.445312 -19.289062 C -4.457031 -19.730469 -5.664062 -19.476562 -6.390625 -18.628906 C -6.722656 -18.242188 -6.933594 -17.78125 -6.980469 -17.285156 C -7.015625 -17.152344 -7.019531 -17.023438 -7.023438 -16.921875 C -7.023438 -16.519531 -6.851562 -15.96875 -6.480469 -15.277344 L 0.523438 -1.800781 C 0.625 -1.632812 0.75 -1.5 0.867188 -1.449219 C 0.976562 -1.386719 1.179688 -1.34375 1.390625 -1.59375 L 2.847656 -3.289062 C 3.019531 -3.492188 3.027344 -3.75 2.894531 -4 L 1.441406 -6.773438 L 4.339844 -10.152344 C 4.484375 -10.324219 4.539062 -10.542969 4.464844 -10.738281 C 4.421875 -10.9375 4.265625 -11.097656 4.070312 -11.183594 L 2.222656 -11.808594 C 1.96875 -11.890625 1.699219 -11.824219 1.527344 -11.625 L -0.113281 -9.710938 L -3.417969 -15.972656 C -3.4375 -16.015625 -3.4375 -16.042969 -3.4375 -16.042969 L -3.386719 -16.105469 C -3.386719 -16.105469 -3.386719 -16.105469 -3.34375 -16.09375 L 9.496094 -11.730469 C 9.777344 -11.625 10.03125 -11.671875 10.21875 -11.886719 L 11.632812 -13.539062 C 11.847656 -13.789062 11.746094 -13.980469 11.695312 -14.078125 C 11.628906 -14.1875 11.476562 -14.292969 11.285156 -14.347656 Z M -3.132812 -19.183594 "/></g></g></g><g fill="#01faff" fill-opacity="1"><g transform="translate(145.721411, 140.791033)"><g><path d="M 4.25 -22.546875 L -7.109375 -15.332031 C -7.265625 -15.234375 -7.578125 -14.964844 -7.238281 -14.429688 L -6.386719 -13.09375 C -6.027344 -12.527344 -5.652344 -12.691406 -5.496094 -12.789062 L -1.085938 -15.59375 L 5.910156 -4.574219 C 6.25 -4.042969 6.625 -4.207031 6.761719 -4.292969 L 8.339844 -5.296875 C 8.496094 -5.394531 8.789062 -5.65625 8.453125 -6.1875 L 1.453125 -17.207031 L 5.863281 -20.007812 C 6.019531 -20.105469 6.328125 -20.375 5.96875 -20.941406 L 5.121094 -22.28125 C 4.78125 -22.8125 4.40625 -22.644531 4.25 -22.546875 Z M 4.25 -22.546875 "/></g></g></g><g fill="#01faff" fill-opacity="1"><g transform="translate(160.593475, 130.969199)"><g><path d="M 8.113281 -17.660156 C 8.046875 -17.75 7.976562 -17.855469 7.914062 -17.921875 C 7.320312 -18.855469 6.179688 -19.320312 5.101562 -19.023438 C 4.613281 -18.886719 4.179688 -18.621094 3.863281 -18.238281 C 3.761719 -18.148438 3.683594 -18.042969 3.625 -17.960938 C 3.398438 -17.625 3.234375 -17.074219 3.15625 -16.292969 L 1.441406 -1.199219 C 1.429688 -1.007812 1.460938 -0.824219 1.53125 -0.71875 C 1.582031 -0.605469 1.730469 -0.457031 2.042969 -0.542969 L 4.199219 -1.140625 C 4.453125 -1.210938 4.605469 -1.421875 4.632812 -1.703125 L 4.976562 -4.8125 L 9.269531 -6 C 9.484375 -6.058594 9.652344 -6.210938 9.703125 -6.414062 C 9.777344 -6.605469 9.738281 -6.824219 9.625 -7.003906 L 8.4375 -8.554688 C 8.273438 -8.761719 8.015625 -8.859375 7.761719 -8.789062 L 5.332031 -8.117188 L 6.085938 -15.160156 C 6.09375 -15.203125 6.109375 -15.230469 6.109375 -15.230469 L 6.1875 -15.25 C 6.1875 -15.25 6.1875 -15.25 6.214844 -15.21875 L 14.429688 -4.429688 C 14.601562 -4.183594 14.839844 -4.078125 15.117188 -4.15625 L 17.210938 -4.734375 C 17.527344 -4.820312 17.550781 -5.039062 17.5625 -5.148438 C 17.570312 -5.277344 17.5 -5.445312 17.375 -5.601562 Z M 8.113281 -17.660156 "/></g></g></g><g fill="#01faff" fill-opacity="1"><g transform="translate(179.660306, 125.512997)"><g><path d="M 13.140625 -14.324219 C 13.101562 -14.425781 13.066406 -14.550781 13.03125 -14.632812 C 12.75 -15.703125 11.808594 -16.496094 10.691406 -16.542969 C 10.179688 -16.5625 9.6875 -16.441406 9.269531 -16.175781 C 9.144531 -16.117188 9.039062 -16.042969 8.957031 -15.984375 C 8.640625 -15.734375 8.316406 -15.257812 8 -14.539062 L 1.738281 -0.699219 C 1.671875 -0.519531 1.640625 -0.335938 1.679688 -0.214844 C 1.691406 -0.0898438 1.785156 0.09375 2.113281 0.109375 L 4.347656 0.203125 C 4.609375 0.214844 4.820312 0.0625 4.933594 -0.199219 L 6.214844 -3.054688 L 10.664062 -2.867188 C 10.886719 -2.859375 11.09375 -2.953125 11.203125 -3.128906 C 11.332031 -3.289062 11.359375 -3.511719 11.308594 -3.714844 L 10.652344 -5.554688 C 10.5625 -5.800781 10.347656 -5.972656 10.082031 -5.984375 L 7.5625 -6.089844 L 10.441406 -12.5625 C 10.460938 -12.605469 10.484375 -12.625 10.484375 -12.625 L 10.566406 -12.621094 C 10.566406 -12.621094 10.566406 -12.621094 10.582031 -12.578125 L 15.089844 0.207031 C 15.179688 0.496094 15.378906 0.667969 15.660156 0.679688 L 17.835938 0.773438 C 18.160156 0.785156 18.25 0.585938 18.296875 0.488281 C 18.339844 0.367188 18.328125 0.183594 18.253906 -0.00390625 Z M 13.140625 -14.324219 "/></g></g></g><g fill="#01faff" fill-opacity="1"><g transform="translate(199.512748, 126.502684)"><g><path d="M 13.625 1.359375 L 7.355469 -0.726562 C 6.949219 -0.859375 6.632812 -1.007812 6.398438 -1.195312 C 6.191406 -1.347656 6.042969 -1.546875 5.976562 -1.804688 C 5.894531 -2.066406 5.875 -2.394531 5.933594 -2.761719 C 5.984375 -3.175781 6.125 -3.664062 6.316406 -4.242188 L 9.480469 -13.753906 C 9.6875 -14.371094 9.320312 -14.558594 9.164062 -14.609375 L 7.390625 -15.199219 C 7.214844 -15.257812 6.8125 -15.328125 6.605469 -14.710938 L 3.550781 -5.527344 C 3.191406 -4.445312 2.980469 -3.488281 2.90625 -2.675781 C 2.820312 -1.847656 2.878906 -1.121094 3.105469 -0.511719 C 3.324219 0.121094 3.703125 0.652344 4.25 1.070312 C 4.757812 1.476562 5.453125 1.835938 6.300781 2.117188 L 12.667969 4.234375 C 12.84375 4.292969 13.234375 4.335938 13.433594 3.738281 L 13.941406 2.214844 C 14.140625 1.617188 13.800781 1.417969 13.625 1.359375 Z M 13.625 1.359375 "/></g></g></g><g fill="#01faff" fill-opacity="1"><g transform="translate(214.370952, 131.204887)"><g><path d="M 18.867188 -7.6875 L 11 -12.824219 C 10.863281 -12.914062 10.492188 -13.085938 10.136719 -12.539062 L 9.257812 -11.195312 C 8.914062 -10.667969 9.21875 -10.394531 9.355469 -10.304688 L 16.777344 -5.457031 C 17.203125 -5.179688 17.429688 -4.859375 17.433594 -4.492188 C 17.457031 -4.117188 17.273438 -3.652344 16.90625 -3.089844 C 16.539062 -2.527344 16.1875 -2.175781 15.832031 -2.042969 C 15.496094 -1.898438 15.113281 -1.980469 14.6875 -2.257812 L 7.265625 -7.105469 C 7.128906 -7.195312 6.753906 -7.367188 6.410156 -6.839844 L 1.738281 0.3125 C 1.394531 0.839844 1.691406 1.128906 1.828125 1.21875 L 3.394531 2.242188 C 3.53125 2.328125 3.914062 2.484375 4.257812 1.957031 L 7.660156 -3.253906 L 13.496094 0.535156 C 14.652344 1.289062 15.71875 1.476562 16.699219 1.097656 C 17.675781 0.714844 18.582031 -0.152344 19.460938 -1.496094 L 19.390625 -1.394531 C 20.28125 -2.753906 20.710938 -3.933594 20.65625 -4.964844 C 20.625 -6.03125 20.023438 -6.933594 18.867188 -7.6875 Z M 18.867188 -7.6875 "/></g></g></g><g fill="#01faff" fill-opacity="1"><g transform="translate(228.744766, 140.435378)"><g><path d="M 22.328125 -0.0390625 L 21.089844 -1.4375 C 20.984375 -1.5625 20.664062 -1.796875 20.195312 -1.378906 L 15.640625 2.648438 L 10.535156 -3.125 L 15.089844 -7.152344 C 15.5625 -7.570312 15.367188 -7.914062 15.246094 -8.050781 L 14.019531 -9.4375 C 13.898438 -9.574219 13.570312 -9.824219 13.097656 -9.40625 L 1.59375 0.761719 C 1.125 1.179688 1.332031 1.535156 1.453125 1.675781 L 2.679688 3.058594 C 2.800781 3.195312 3.117188 3.433594 3.589844 3.015625 L 8.28125 -1.132812 L 13.382812 4.640625 L 8.691406 8.789062 C 8.21875 9.207031 8.414062 9.550781 8.523438 9.671875 L 9.761719 11.074219 C 9.882812 11.210938 10.214844 11.460938 10.6875 11.042969 L 22.1875 0.875 C 22.660156 0.457031 22.449219 0.0976562 22.328125 -0.0390625 Z M 22.328125 -0.0390625 "/></g></g></g><g fill="#01faff" fill-opacity="1"><g transform="translate(240.239204, 152.873451)"><g><path d="M 18.753906 5.105469 C 18.828125 5.023438 18.921875 4.9375 18.980469 4.867188 C 19.800781 4.125 20.074219 2.921875 19.601562 1.910156 C 19.386719 1.449219 19.054688 1.066406 18.625 0.816406 C 18.519531 0.730469 18.402344 0.671875 18.3125 0.625 C 17.945312 0.460938 17.371094 0.390625 16.589844 0.4375 L 1.417969 1.222656 C 1.226562 1.246094 1.054688 1.304688 0.960938 1.390625 C 0.859375 1.460938 0.734375 1.632812 0.871094 1.925781 L 1.8125 3.957031 C 1.925781 4.195312 2.15625 4.3125 2.441406 4.292969 L 5.566406 4.121094 L 7.441406 8.160156 C 7.535156 8.363281 7.710938 8.503906 7.921875 8.519531 C 8.121094 8.5625 8.332031 8.484375 8.488281 8.34375 L 9.824219 6.917969 C 10 6.722656 10.054688 6.453125 9.945312 6.210938 L 8.882812 3.925781 L 15.953125 3.511719 C 16 3.515625 16.027344 3.523438 16.027344 3.523438 L 16.058594 3.597656 C 16.058594 3.597656 16.058594 3.597656 16.03125 3.632812 L 6.738281 13.503906 C 6.523438 13.71875 6.460938 13.96875 6.582031 14.226562 L 7.496094 16.203125 C 7.632812 16.496094 7.851562 16.484375 7.960938 16.480469 C 8.089844 16.464844 8.246094 16.371094 8.378906 16.21875 Z M 18.753906 5.105469 "/></g></g></g><g fill="#01faff" fill-opacity="1"><g transform="translate(124.54498, 235.101868)"><g><path d="M 15.171875 0.964844 L 10.84375 -3.332031 C 10.625 -3.546875 10.4375 -3.90625 11.140625 -4.613281 L 12.199219 -5.679688 C 12.457031 -5.9375 12.703125 -6.097656 12.917969 -6.171875 C 13.0625 -6.199219 13.246094 -6.214844 13.492188 -5.972656 L 19.367188 -0.140625 C 19.480469 -0.0273438 19.8125 0.214844 20.257812 -0.230469 L 21.402344 -1.386719 C 21.847656 -1.832031 21.601562 -2.164062 21.484375 -2.277344 L 15.265625 -8.449219 C 14.472656 -9.238281 13.636719 -9.550781 12.734375 -9.390625 C 11.84375 -9.242188 10.96875 -8.738281 10.136719 -7.902344 L 9.046875 -6.804688 C 8.058594 -5.808594 7.460938 -4.800781 7.316406 -3.9375 C 7.179688 -2.902344 7.757812 -2.15625 8.363281 -1.554688 L 12.691406 2.742188 C 12.90625 2.957031 13.109375 3.332031 12.40625 4.039062 L 11.175781 5.28125 C 10.917969 5.539062 10.675781 5.699219 10.445312 5.757812 C 10.300781 5.785156 10.113281 5.800781 9.867188 5.558594 L 3.707031 -0.558594 C 3.578125 -0.6875 3.246094 -0.933594 2.800781 -0.484375 L 1.65625 0.667969 C 1.210938 1.117188 1.457031 1.445312 1.585938 1.574219 L 8.09375 8.035156 C 8.886719 8.824219 9.75 9.136719 10.65625 8.976562 C 11.535156 8.816406 12.394531 8.324219 13.226562 7.484375 L 14.484375 6.214844 C 15.417969 5.277344 15.960938 4.355469 16.101562 3.464844 C 16.226562 2.558594 15.921875 1.710938 15.171875 0.964844 Z M 15.171875 0.964844 "/></g></g></g><g fill="#01faff" fill-opacity="1"><g transform="translate(137.648125, 247.929038)"><g><path d="M 13.679688 4.21875 L 7.601562 0.441406 C 7.238281 0.214844 6.980469 -0.0195312 6.78125 -0.238281 C 6.609375 -0.464844 6.527344 -0.683594 6.496094 -0.941406 C 6.476562 -1.214844 6.535156 -1.539062 6.6875 -1.902344 C 6.722656 -1.996094 6.796875 -2.117188 6.835938 -2.214844 C 6.835938 -2.214844 7.625 -3.449219 7.640625 -3.4375 L 15.363281 1.359375 C 15.5 1.445312 15.886719 1.589844 16.222656 1.054688 L 17.070312 -0.308594 C 17.402344 -0.84375 17.089844 -1.109375 16.949219 -1.195312 L 8.027344 -6.714844 C 7.507812 -6.992188 6.914062 -7.003906 6.402344 -6.722656 C 6.230469 -6.636719 6.078125 -6.542969 5.945312 -6.40625 L 4.558594 -4.253906 L 4.503906 -4.167969 C 4.019531 -3.34375 3.675781 -2.601562 3.441406 -1.953125 C 3.167969 -1.167969 3.074219 -0.4375 3.132812 0.199219 C 3.199219 0.863281 3.453125 1.453125 3.890625 1.984375 C 4.296875 2.527344 4.878906 3.007812 5.640625 3.480469 L 11.769531 7.292969 C 11.925781 7.386719 12.304688 7.550781 12.636719 7.015625 L 13.816406 5.117188 C 14.148438 4.582031 13.835938 4.316406 13.679688 4.21875 Z M 20.644531 -6.945312 L 10.714844 -13.117188 C 10.574219 -13.203125 10.203125 -13.335938 9.859375 -12.785156 L 9.023438 -11.4375 C 8.691406 -10.902344 8.988281 -10.644531 9.125 -10.558594 L 19.042969 -4.371094 C 19.183594 -4.285156 19.570312 -4.140625 19.902344 -4.675781 L 20.75 -6.039062 C 21.082031 -6.574219 20.78125 -6.859375 20.644531 -6.945312 Z M 20.644531 -6.945312 "/></g></g></g><g fill="#01faff" fill-opacity="1"><g transform="translate(153.099072, 257.487978)"><g><path d="M 19.902344 -11.023438 L 11.605469 -13.789062 C 10.757812 -14.074219 9.988281 -14.203125 9.316406 -14.191406 C 8.644531 -14.15625 8 -13.964844 7.472656 -13.605469 C 6.917969 -13.230469 6.425781 -12.710938 5.992188 -11.996094 C 5.570312 -11.304688 5.183594 -10.402344 4.828125 -9.34375 L 3.554688 -5.523438 C 3.195312 -4.441406 2.964844 -3.492188 2.878906 -2.660156 C 2.804688 -1.851562 2.878906 -1.117188 3.097656 -0.488281 C 3.324219 0.121094 3.703125 0.65625 4.230469 1.066406 C 4.757812 1.480469 5.453125 1.839844 6.300781 2.121094 L 12.898438 4.320312 C 13.609375 4.558594 14.265625 4.457031 14.839844 4.027344 C 15.386719 3.609375 15.882812 2.765625 16.3125 1.472656 L 18.035156 -3.695312 C 18.28125 -4.429688 17.894531 -4.6875 17.644531 -4.769531 L 10.816406 -7.046875 C 10.660156 -7.097656 10.25 -7.148438 10.042969 -6.53125 L 9.554688 -5.066406 C 9.34375 -4.429688 9.710938 -4.242188 9.863281 -4.191406 L 14.667969 -2.589844 C 14.667969 -2.589844 13.785156 0.117188 13.785156 0.117188 C 13.585938 0.714844 13.40625 0.933594 13.289062 1.023438 C 13.140625 1.144531 12.96875 1.152344 12.757812 1.082031 L 7.355469 -0.71875 C 6.949219 -0.855469 6.617188 -1.007812 6.398438 -1.1875 C 6.171875 -1.351562 6.042969 -1.542969 5.960938 -1.804688 C 5.890625 -2.042969 5.871094 -2.371094 5.933594 -2.757812 C 5.984375 -3.167969 6.109375 -3.664062 6.300781 -4.242188 L 7.792969 -8.71875 C 7.988281 -9.296875 8.1875 -9.765625 8.390625 -10.125 C 8.566406 -10.453125 8.777344 -10.703125 8.984375 -10.871094 C 9.203125 -11.011719 9.421875 -11.089844 9.703125 -11.101562 C 9.980469 -11.097656 10.347656 -11.039062 10.75 -10.902344 L 18.949219 -8.171875 C 19.101562 -8.121094 19.507812 -8.046875 19.714844 -8.664062 L 20.214844 -10.171875 C 20.414062 -10.769531 20.054688 -10.972656 19.902344 -11.023438 Z M 19.902344 -11.023438 "/></g></g></g><g fill="#01faff" fill-opacity="1"><g transform="translate(171.871935, 263.617474)"><g><path d="M 16.898438 -15.519531 L 15.03125 -15.664062 C 14.851562 -15.675781 14.460938 -15.644531 14.414062 -15.015625 L 13.65625 -5.019531 C 13.609375 -4.414062 13.527344 -3.886719 13.4375 -3.507812 C 13.347656 -3.128906 13.203125 -2.832031 13.046875 -2.621094 C 12.867188 -2.429688 12.675781 -2.300781 12.402344 -2.21875 C 12.132812 -2.160156 11.761719 -2.125 11.335938 -2.15625 L 6.957031 -2.488281 C 6.53125 -2.523438 6.171875 -2.609375 5.914062 -2.710938 C 5.660156 -2.832031 5.488281 -2.988281 5.339844 -3.203125 C 5.214844 -3.4375 5.117188 -3.75 5.066406 -4.144531 C 5.035156 -4.53125 5.03125 -5.0625 5.078125 -5.671875 L 5.835938 -15.667969 C 5.882812 -16.292969 5.503906 -16.382812 5.320312 -16.398438 L 3.476562 -16.539062 C 3.292969 -16.550781 2.882812 -16.523438 2.835938 -15.894531 L 2.101562 -6.222656 C 2.015625 -5.085938 2.023438 -4.109375 2.148438 -3.304688 C 2.269531 -2.480469 2.519531 -1.785156 2.886719 -1.25 C 3.234375 -0.691406 3.753906 -0.285156 4.363281 0.00390625 C 4.976562 0.273438 5.738281 0.433594 6.628906 0.503906 L 11.191406 0.847656 C 12.082031 0.917969 12.863281 0.875 13.507812 0.699219 C 14.175781 0.503906 14.730469 0.179688 15.175781 -0.316406 C 15.617188 -0.792969 15.953125 -1.441406 16.195312 -2.238281 C 16.4375 -3.015625 16.59375 -3.980469 16.679688 -5.117188 L 17.414062 -14.789062 C 17.460938 -15.417969 17.082031 -15.507812 16.898438 -15.519531 Z M 16.898438 -15.519531 "/></g></g></g><g fill="#01faff" fill-opacity="1"><g transform="translate(191.855498, 264.975681)"><g><path d="M 13.25 -14.351562 C 13.253906 -14.332031 13.257812 -14.3125 13.257812 -14.292969 C 13.261719 -14.273438 13.265625 -14.25 13.269531 -14.230469 Z M 15.5 -3.558594 L 10.957031 -8.964844 C 11.917969 -9.253906 12.609375 -9.804688 12.992188 -10.574219 C 13.410156 -11.492188 13.507812 -12.726562 13.257812 -14.292969 C 12.96875 -15.851562 12.464844 -16.980469 11.761719 -17.707031 C 11.015625 -18.464844 9.941406 -18.714844 8.578125 -18.476562 L -0.660156 -16.886719 C -0.839844 -16.855469 -1.230469 -16.726562 -1.121094 -16.085938 L -0.847656 -14.503906 C -0.742188 -13.882812 -0.328125 -13.890625 -0.148438 -13.921875 L 8.566406 -15.421875 C 9.089844 -15.511719 9.453125 -15.429688 9.703125 -15.164062 C 9.976562 -14.902344 10.160156 -14.4375 10.273438 -13.777344 C 10.386719 -13.117188 10.371094 -12.617188 10.203125 -12.28125 C 10.054688 -11.945312 9.738281 -11.746094 9.214844 -11.65625 L 0.5 -10.15625 C 0.320312 -10.125 -0.0703125 -9.996094 0.0351562 -9.375 L 1.484375 -0.957031 C 1.59375 -0.335938 2.007812 -0.324219 2.1875 -0.355469 L 4.011719 -0.671875 C 4.191406 -0.703125 4.558594 -0.847656 4.449219 -1.46875 L 3.394531 -7.601562 L 7.621094 -8.328125 L 12.359375 -2.519531 C 12.457031 -2.414062 12.535156 -2.324219 12.625 -2.277344 C 12.742188 -2.214844 12.886719 -2.199219 13.066406 -2.230469 L 15.273438 -2.609375 C 15.511719 -2.652344 15.664062 -2.84375 15.664062 -3.089844 C 15.648438 -3.292969 15.601562 -3.449219 15.5 -3.558594 Z M 15.5 -3.558594 "/></g></g></g><g fill="#01faff" fill-opacity="1"><g transform="translate(210.82465, 261.156216)"><g><path d="M -1.765625 -17.148438 L -3.527344 -16.523438 C -3.679688 -16.46875 -4.039062 -16.257812 -3.828125 -15.664062 L 1.300781 -1.195312 C 1.511719 -0.601562 1.921875 -0.660156 2.078125 -0.714844 L 3.839844 -1.339844 C 3.992188 -1.394531 4.347656 -1.605469 4.136719 -2.199219 L -0.992188 -16.667969 C -1.199219 -17.261719 -1.613281 -17.203125 -1.765625 -17.148438 Z M -1.765625 -17.148438 "/></g></g></g><g fill="#01faff" fill-opacity="1"><g transform="translate(218.593563, 258.859531)"><g><path d="M 5.445312 -22.289062 L -6.285156 -15.6875 C -6.445312 -15.597656 -6.769531 -15.34375 -6.460938 -14.796875 L -5.683594 -13.414062 C -5.351562 -12.828125 -4.96875 -12.976562 -4.808594 -13.066406 L -0.253906 -15.628906 L 6.144531 -4.253906 C 6.457031 -3.703125 6.839844 -3.847656 6.980469 -3.929688 L 8.613281 -4.847656 C 8.769531 -4.9375 9.078125 -5.179688 8.769531 -5.726562 L 2.367188 -17.105469 L 6.921875 -19.667969 C 7.082031 -19.757812 7.40625 -20.007812 7.074219 -20.59375 L 6.296875 -21.976562 C 5.988281 -22.523438 5.605469 -22.378906 5.445312 -22.289062 Z M 5.445312 -22.289062 "/></g></g></g><g fill="#01faff" fill-opacity="1"><g transform="translate(236.058487, 248.918006)"><g><path d="M 0.398438 -23.632812 L -1.226562 -22.066406 C -1.359375 -21.941406 -1.492188 -21.726562 -1.398438 -21.394531 L 1.03125 -12.417969 L -7.800781 -15.207031 C -8.144531 -15.328125 -8.363281 -15.203125 -8.496094 -15.078125 L -10.164062 -13.46875 C -10.296875 -13.34375 -10.328125 -13.171875 -10.230469 -13.011719 C -10.160156 -12.878906 -10.035156 -12.777344 -9.878906 -12.730469 L 2.058594 -9.121094 L 5.148438 -5.910156 C 5.585938 -5.457031 5.917969 -5.695312 6.035156 -5.808594 L 7.386719 -7.105469 C 7.503906 -7.21875 7.753906 -7.542969 7.316406 -7.996094 L 4.230469 -11.207031 L 1.125 -23.316406 C 1.085938 -23.476562 0.988281 -23.605469 0.847656 -23.695312 C 0.691406 -23.769531 0.515625 -23.746094 0.398438 -23.632812 Z M 0.398438 -23.632812 "/></g></g></g></svg>